{"title":"Death at a Funeral-AC3-XviD-DVDRip[Eng]2010 2Lions-Team","uid":5713338,"size":1464346475,"categoryP":"video","categoryS":"movies","magnet":"?xt=urn:btih:b06099e19ee3677d8652639891064fab8e2f59d0&amp;dn=Death+at+a+Funeral-AC3-XviD-DVDRip%5BEng%5D2010+2Lions-Team&amp;tr=udp%3A%2F%2Ftracker.openbittorrent.com%3A80&amp;tr=udp%3A%2F%2Fopen.demonii.com%3A1337&amp;tr=udp%3A%2F%2Ftracker.coppersurfer.tk%3A6969&amp;tr=udp%3A%2F%2Fexodus.desync.com%3A6969","seeders":0,"leechers":1,"uploader":null,"files":12,"time":1279988085,"description":"A funeral ceremony turns into a debacle of exposed family secrets and misplaced bodies.\n &lt;a href=&quot;\nhttp://www.imdb.com/title/tt1321509/&quot; rel=&quot;nofollow&quot; target=&quot;_NEW&quot;&gt;\nhttp://www.imdb.com/title/tt1321509/&lt;/a&gt;\n\nSubtitles (srt) : Dutch, English.\n\nCovers included.\n\nWanneer hun vader overlijdt, komen twee broers (Chris Rock &amp; Martin Lawrence), samen met de rest van de familie bij elkaar. Dit laatste afscheid loopt echter al snel in het honderd, wanneer er een totaal onbekende man in de kist wordt aangetroffen, er veel geheimen boven water komen en het vooral ÃƒÂ©ÃƒÂ©n groot zootje wordt op deze dag.\n &lt;a href=&quot;\nhttp://www.moviemeter.nl/film/62019&quot; rel=&quot;nofollow&quot; target=&quot;_NEW&quot;&gt;\nhttp://www.moviemeter.nl/film/62019&lt;/a&gt;\n\nOndertitels (srt) : Engels, Nederlands.\n\nHoesjes bijgevoegd.\n\nGeneral\nComplete name                    : Death at a Funeral-AC3-XviD-DVDRip[Eng]2010 2Lions-TeamDeath at a Funeral-AC3-XviD-DVDRip[Eng]2010.avi\nFormat                           : AVI\nFormat/Info                      : Audio Video Interleave\nFile size                        : 1.36 GiB\nDuration                         : 1h 32mn\nOverall bit rate                 : 2 113 Kbps\nWriting application              : VirtualDubMod 1.5.4.1 (build 2178/release)\nWriting library                  : VirtualDubMod build 2178/release\n\nVideo\nID                               : 0\nFormat                           : MPEG-4 Visual\nFormat profile                   : Simple@L3\nFormat settings, BVOP            : No\nFormat settings, QPel            : No\nFormat settings, GMC             : No warppoints\nFormat settings, Matrix          : Default (H.263)\nCodec ID                         : XVID\nCodec ID/Hint                    : XviD\nDuration                         : 1h 32mn\nBit rate                         : 1 656 Kbps\nWidth                            : 720 pixels\nHeight                           : 304 pixels\nDisplay aspect ratio             : 2.35:1\nFrame rate                       : 23.976 fps\nResolution                       : 8 bits\nColorimetry                      : 4:2:0\nScan type                        : Progressive\nBits/(Pixel*Frame)               : 0.316\nStream size                      : 1.07 GiB (78%)\nWriting library                  : XviD 1.1.2 (UTC 2006-11-01)\n\nAudio\nID                               : 1\nFormat                           : AC-3\nFormat/Info                      : Audio Coding 3\nFormat_Settings_ModeExtension    : CM (complete main)\nCodec ID                         : 2000\nDuration                         : 1h 32mn\nBit rate mode                    : Constant\nBit rate                         : 448 Kbps\nChannel(s)                       : 6 channels\nChannel positions                : Front: L C R, Side: L R, LFE\nSampling rate                    : 48.0 KHz\nStream size                      : 296 MiB (21%)\nAlignment                        : Split accross interleaves\nInterleave, duration             : 42 ms (1.00 video frame)\nInterleave, preload duration     : 500 ms\n\nThanks to Fast-Release Team for the source.Nice job!\n\nBrought to you by \n2Lions Team\n\nmeer zien??\n                   \nKom dan eens kijken op ons NIEUWE forum \n            &lt;a href=&quot;\nhttp://www.2lions-site.nl&quot; rel=&quot;nofollow&quot; target=&quot;_NEW&quot;&gt;\nhttp://www.2lions-site.nl&lt;/a&gt;\n\n2Lions the site to be for all your Dutch MOVIES and more\n\n******************************************\n\nDON T HIT AND RUN Niet gelijk afhaken als de FILM binnen is blijf seeden. \n\nDon`t quit after you finished the download, but keep seeding\n\nThere are fake torrents from uploaders who use our team name.\nThose are not ours, or members from our team.\nWe 2Lions-Team are not responsible for the fake posts on our name\n\nWij 2Lions-Team zijn niet verantwoordelijk voor die zieke FAKE posten die op onze naam worden gedaan\n\nPlease check our site !!!\n\nto the fakers , get a life !!!","torrent":{"xt":"urn:btih:b06099e19ee3677d8652639891064fab8e2f59d0","amp;dn":"Death+at+a+Funeral-AC3-XviD-DVDRip%5BEng%5D2010+2Lions-Team","amp;tr":["udp%3A%2F%2Ftracker.openbittorrent.com%3A80","udp%3A%2F%2Fopen.demonii.com%3A1337","udp%3A%2F%2Ftracker.coppersurfer.tk%3A6969","udp%3A%2F%2Fexodus.desync.com%3A6969"],"infoHash":"b06099e19ee3677d8652639891064fab8e2f59d0","infoHashBuffer":{"type":"Buffer","data":[176,96,153,225,158,227,103,125,134,82,99,152,145,6,79,171,142,47,89,208]},"announce":[],"urlList":[]}}